<svg width="122.88" height="87.93" xmlns="http://www.w3.org/2000/svg" data-name="Layer 1">

 <title>movie-ticket</title>
 <g>
  <title>Layer 1</title>
  <path fill="white" id="svg_1" fill-rule="evenodd" d="m3.2,32.79l97.89,0l1.53,1.34l-0.62,2.81l0,0a0.09,0.09 0 0 0 0,0.05a0.23,0.23 0 0 0 0.23,0.23a0.27,0.27 0 0 0 0.12,0l2.48,-1.48l2.47,1.47a0.17,0.17 0 0 0 0.12,0a0.23,0.23 0 0 0 0.23,-0.23l0,-0.05l-0.65,-2.81l1.53,-1.33l11.18,0a3.22,3.22 0 0 1 3.2,3.21l0,13.24a10.42,10.42 0 0 0 0,20.25l0,13.24a3.21,3.21 0 0 1 -3.2,3.2l-12.54,0l-0.2,-0.87l2.18,-1.9l0,0a0.25,0.25 0 0 0 0.08,-0.18a0.23,0.23 0 0 0 -0.21,-0.22l-2.88,-0.26l-1.14,-2.65a0.23,0.23 0 0 0 -0.21,-0.14a0.23,0.23 0 0 0 -0.22,0.14l-1.13,2.65l-2.87,0.25a0.23,0.23 0 0 0 -0.21,0.23a0.24,0.24 0 0 0 0.07,0.18l2.18,1.9l-0.2,0.87l-99.21,0a3.21,3.21 0 0 1 -3.2,-3.2l0,-13.17a10.42,10.42 0 0 0 8.32,-10.2a10.42,10.42 0 0 0 -8.32,-10.2l0,-13.16a3.21,3.21 0 0 1 3.2,-3.21zm27.47,27.9l0.33,3.25a8.14,8.14 0 0 1 -3.05,0.5a9.11,9.11 0 0 1 -2.95,-0.39a3.6,3.6 0 0 1 -1.75,-1.21a4.82,4.82 0 0 1 -0.89,-2a12.68,12.68 0 0 1 -0.25,-2.76a12.94,12.94 0 0 1 0.25,-2.78a4.76,4.76 0 0 1 0.89,-2c0.82,-1.07 2.34,-1.6 4.54,-1.6a11.63,11.63 0 0 1 1.73,0.14a6.22,6.22 0 0 1 1.48,0.36l-0.58,3a11,11 0 0 0 -2.3,-0.27a3.73,3.73 0 0 0 -1.45,0.19a0.78,0.78 0 0 0 -0.41,0.77l0,5.11a7.86,7.86 0 0 0 1.53,0.15a8.48,8.48 0 0 0 2.92,-0.46l-0.04,0zm2.08,3.46l0,-12.08l3.87,0l0,12.08l-3.87,0zm13.33,0l-3,-4.29a2.09,2.09 0 0 1 -0.19,-0.93l-0.08,0l0,5.22l-3.81,0l0,-12.08l3.63,0l3,4.29a2,2 0 0 1 0.19,0.93l0.08,0l0,-5.22l3.87,0l0,12.08l-3.69,0zm13.74,-4.56l-3.82,0l0,1.47l4.74,0l0,3.09l-8.6,0l0,-12.08l8.5,0l-0.48,3.09l-4.16,0l0,1.62l3.87,0l0,2.81l-0.05,0zm6.51,4.56l-4,0l0.67,-12.08l5,0l1.51,6.14l0.13,0l1.51,-6.14l5,0l0.85,12.08l-4,0l-0.23,-5.86l-0.14,0l-1.47,5.86l-3,0l-1.49,-5.86l-0.12,0l-0.23,5.86l0.01,0zm15.44,0l-4.08,0l3.13,-12.08l6,0l3.13,12.08l-4.1,0l-0.45,-1.91l-3.19,0l-0.44,1.91zm1.93,-8.37l-0.79,3.38l1.78,0l-0.78,-3.38l-0.21,0zm-63.41,-57.65l99.15,29.73a3.25,3.25 0 0 1 1.64,1.14l-47.08,0l-41.11,-13.61a3.7,3.7 0 0 0 -4.61,2.61l-3.06,11l-9.16,0a10.41,10.41 0 0 0 -3.25,-16l3.53,-12.65a3.2,3.2 0 0 1 3.95,-2.22zm84.71,64.74l1.13,2.65l2.88,0.26a0.23,0.23 0 0 1 0.13,0.4l0,0l-2.14,1.9l0.65,2.81l0,0a0.23,0.23 0 0 1 -0.23,0.24a0.25,0.25 0 0 1 -0.12,0l-2.47,-1.48l-2.48,1.48a0.28,0.28 0 0 1 -0.12,0a0.23,0.23 0 0 1 -0.23,-0.13a0.13,0.13 0 0 1 0,-0.06l0,0l0.64,-2.81l-2.18,-1.9a0.22,0.22 0 0 1 -0.07,-0.17a0.23,0.23 0 0 1 0.21,-0.23l2.87,-0.26l1.13,-2.65a0.23,0.23 0 0 1 0.22,-0.14a0.23,0.23 0 0 1 0.21,0.14l-0.03,-0.05zm0,-17l1.13,2.65l2.88,0.26a0.23,0.23 0 0 1 0.21,0.23a0.21,0.21 0 0 1 -0.08,0.17l0,0l-2.14,1.92l0.65,2.81l0,0.09a0.23,0.23 0 0 1 -0.23,0.23a0.25,0.25 0 0 1 -0.12,0l-2.47,-1.48l-2.48,1.49l-0.12,0a0.23,0.23 0 0 1 -0.23,-0.24a0.07,0.07 0 0 1 0,0l0,0l0.64,-2.82l-2.18,-1.9a0.21,0.21 0 0 1 -0.07,-0.17a0.23,0.23 0 0 1 0.21,-0.23l2.87,-0.26l1.13,-2.65a0.25,0.25 0 0 1 0.22,-0.14a0.24,0.24 0 0 1 0.21,0.14l-0.03,-0.1zm-85,-0.81l71.8,0a3.75,3.75 0 0 1 3.74,3.73l0,19.14a3.76,3.76 0 0 1 -3.74,3.74l-71.8,0a3.75,3.75 0 0 1 -3.73,-3.74l0,-19.12a3.74,3.74 0 0 1 3.73,-3.73l0,-0.02z" class="cls-1"/>
 </g>
</svg>